<svg width="144" height="28" viewBox="0 0 144 28" fill="none" xmlns="http://www.w3.org/2000/svg">
<path d="M137.959 4.8327H125.574V20.6031H129.628V16.3903H137.959C141.535 16.3903 144 14.1328 144 10.6194C144 7.10605 141.535 4.8327 137.959 4.8327ZM136.83 12.9882H129.628V8.23478H136.83C138.038 8.23478 139.946 8.23478 139.946 10.6194C139.93 12.9882 138.038 12.9882 136.83 12.9882ZM116.386 4.8327H104.001V20.6031H108.055V16.3903H116.386C119.962 16.3903 122.427 14.1328 122.427 10.6194C122.427 7.10605 119.962 4.8327 116.386 4.8327ZM115.257 12.9882H108.055V8.23478H115.257C116.481 8.23478 118.373 8.23478 118.373 10.6194C118.373 12.9882 116.481 12.9882 115.257 12.9882ZM87.6909 4.81681L79.5672 20.5872H84.0344L85.7196 17.2328H95.1627L96.8479 20.5872H101.331L93.1596 4.81681H87.6909ZM87.2139 14.2123L90.4411 7.82144L93.6365 14.2123H87.2139ZM61.5076 15.1661C61.5076 16.8354 62.8589 17.5985 67.9938 17.5985C72.2543 17.5985 73.542 17.1215 73.542 15.8815C73.542 14.5779 72.6359 14.3554 67.5328 14.101C60.665 13.7831 57.9306 12.702 57.9306 9.17273C57.9306 5.70707 61.4599 4.59424 67.3738 4.59424C73.3195 4.59424 76.9282 6.08861 76.9282 9.98347H72.8743C72.8743 8.25068 71.1415 7.82144 66.9287 7.82144C62.9384 7.82144 62.0004 8.20298 62.0004 9.3794C62.0004 10.6035 62.9543 10.8261 67.5487 11.0964C73.7328 11.4302 77.58 11.7641 77.58 15.7543C77.58 19.9672 73.5897 20.8257 67.7553 20.8257C61.285 20.8257 57.4378 19.7287 57.4378 15.1661H61.5076ZM42.0331 4.81681L33.9094 20.5872H38.3767L40.0618 17.2328H49.5049L51.1901 20.5872H55.6732L47.5177 4.81681H42.0331ZM41.5721 14.2123L44.7993 7.82144L47.9947 14.2123H41.5721Z" fill="#4b4e4f"/>
<path d="M14.117 4.81689L7.96468 6.47023C7.21749 10.6036 4.05388 13.8785 0 14.8006L1.57386 20.5873C8.71186 18.8704 14.0216 12.4795 14.117 4.81689Z" fill="#4b4e4f"/>
<path d="M21.6207 4.62619C21.6207 3.56105 21.7796 2.52771 22.0817 1.55796L16.295 0C15.8657 1.46258 15.6432 3.02054 15.6432 4.62619C15.6432 10.6355 18.8704 15.8817 23.6873 18.7591L25.3407 12.5909C23.0514 10.6673 21.6207 7.8216 21.6207 4.62619Z" fill="#4b4e4f"/>
<path d="M14.8642 17.9644C11.939 17.9644 9.2047 18.7275 6.82007 20.0629L11.3349 24.5778C12.4319 24.1803 13.6242 23.9737 14.8642 23.9737C17.8847 23.9737 20.6032 25.2614 22.5109 27.3121L26.7556 23.0675C23.7668 19.9039 19.5381 17.9644 14.8642 17.9644Z" fill="#4b4e4f"/>
</svg>
