<svg width="144" height="28" viewBox="0 0 144 28" fill="none" xmlns="http://www.w3.org/2000/svg">
<path d="M49.7658 8.32446C51.1351 9.08121 52.2162 10.0902 52.973 11.4235C53.7658 12.7208 54.1621 14.1983 54.1621 15.7839C54.1621 17.3695 53.7658 18.8469 52.973 20.1442C52.1802 21.4776 51.0991 22.5226 49.7658 23.2794C48.3964 24.0361 46.8829 24.4325 45.2252 24.4325C43.5676 24.4325 42.054 24.0361 40.6847 23.2794C39.3153 22.5226 38.2342 21.4776 37.4775 20.1442C36.6847 18.8109 36.2883 17.3695 36.2883 15.7839C36.2883 14.1983 36.6847 12.7208 37.4775 11.4235C38.2703 10.1262 39.3513 9.08121 40.6847 8.32446C42.054 7.5677 43.5676 7.20734 45.2252 7.20734C46.8829 7.1713 48.3964 7.5677 49.7658 8.32446ZM42.4144 10.8109C41.5495 11.3154 40.8288 12.0001 40.3243 12.8649C39.8198 13.7298 39.5676 14.7028 39.5676 15.7478C39.5676 16.7929 39.8198 17.7658 40.3603 18.6307C40.8648 19.4956 41.5856 20.2163 42.4504 20.7208C43.3153 21.2253 44.2522 21.4776 45.2973 21.4776C46.3063 21.4776 47.2432 21.2253 48.1081 20.7208C48.973 20.2163 49.6576 19.5316 50.1621 18.6307C50.6666 17.7658 50.9189 16.7929 50.9189 15.7478C50.9189 14.7028 50.6666 13.7298 50.1621 12.8649C49.6576 12.0001 48.973 11.3154 48.1081 10.8109C47.2432 10.3064 46.3063 10.0541 45.2973 10.0541C44.2162 10.0541 43.2793 10.3064 42.4144 10.8109Z" fill="#4b4e4f"/>
<path d="M77.5856 23.3873C76.5766 24 75.4955 24.3243 74.3784 24.3243C73.2612 24.3243 72.3603 24 71.6757 23.3513C70.991 22.7028 70.6306 21.7657 70.6306 20.5045V8.36036L73.7297 8V11.8919H77.4054V14.1622H73.7297V19.928C73.7297 20.5046 73.8378 20.937 74.054 21.1892C74.2703 21.4415 74.6306 21.5496 75.063 21.5496C75.5315 21.5496 76.1441 21.3693 76.9009 21.009L77.5856 23.3873Z" fill="#4b4e4f"/>
<path d="M84.7928 11.9284C85.5495 11.496 86.4144 11.2437 87.3874 11.2437V14.2707C86.054 14.1987 85.009 14.487 84.2162 15.2077C83.4234 15.8924 83.027 16.8293 83.027 18.0185V24.2167H79.9279V11.3518H83.027V13.8023C83.4955 13.0095 84.0721 12.3608 84.7928 11.9284Z" fill="#4b4e4f"/>
<path d="M99.3153 13.009C100.36 14.1622 100.865 15.8198 100.865 17.9099C100.865 18.3424 100.865 18.6306 100.829 18.8469H91.3513C91.5676 19.7478 92 20.4685 92.6486 21.009C93.2973 21.5135 94.0901 21.8018 95.027 21.8018C95.6757 21.8018 96.3243 21.6937 96.9009 21.4415C97.5135 21.1892 98.018 20.8288 98.4865 20.3604L100.18 22.1261C99.5315 22.8469 98.7748 23.3874 97.8378 23.7478C96.9369 24.1442 95.8919 24.3243 94.7748 24.3243C93.4775 24.3243 92.3243 24.036 91.3153 23.4955C90.3063 22.955 89.5495 22.1982 89.009 21.1892C88.4685 20.2162 88.1802 19.0631 88.1802 17.8018C88.1802 16.5406 88.4685 15.3874 89.009 14.4144C89.5495 13.4415 90.3423 12.6487 91.3153 12.1081C92.2883 11.5676 93.4414 11.2793 94.7027 11.2793C96.7567 11.2433 98.3063 11.8559 99.3153 13.009ZM98.018 16.7568C97.982 15.8198 97.6576 15.0631 97.0811 14.4865C96.5045 13.9099 95.7117 13.6577 94.7387 13.6577C93.8378 13.6577 93.0811 13.946 92.4324 14.4865C91.8198 15.027 91.4234 15.7838 91.2793 16.7568H98.018Z" fill="#4b4e4f"/>
<path d="M115.964 11.3516V24.1804H112.865V22.1264C112.396 22.8471 111.82 23.3516 111.063 23.748C110.342 24.1084 109.514 24.3246 108.577 24.3246C107.351 24.3246 106.306 24.0363 105.369 23.4958C104.468 22.9552 103.748 22.1624 103.207 21.1534C102.703 20.1444 102.45 18.9913 102.45 17.73C102.45 16.4687 102.703 15.3156 103.207 14.3426C103.712 13.3696 104.432 12.6129 105.369 12.0363C106.27 11.4958 107.351 11.2075 108.541 11.2075C109.477 11.2075 110.306 11.3877 111.063 11.7841C111.784 12.1444 112.396 12.685 112.865 13.4057V11.3516H115.964ZM111.712 20.757C112.36 20.1084 112.757 19.2795 112.829 18.2705V17.3696C112.721 16.3246 112.36 15.4958 111.712 14.8831C111.063 14.2345 110.234 13.9462 109.225 13.9462C108.144 13.9462 107.279 14.3066 106.631 15.0273C105.946 15.748 105.622 16.685 105.586 17.8381C105.586 18.9913 105.946 19.9282 106.631 20.6489C107.315 21.3696 108.18 21.73 109.225 21.73C110.234 21.694 111.063 21.4057 111.712 20.757Z" fill="#4b4e4f"/>
<path d="M124.577 13.9822C123.531 13.9822 122.703 14.3426 122.054 15.0273C121.405 15.748 121.081 16.6489 121.081 17.766C121.081 18.9192 121.405 19.8561 122.054 20.5408C122.703 21.2615 123.531 21.5859 124.577 21.5859C126.126 21.5859 127.243 21.0813 128.036 20.0723L129.982 21.694C129.405 22.5228 128.649 23.1714 127.712 23.6039C126.775 24.0363 125.658 24.2886 124.432 24.2886C123.171 24.2886 122.054 24.0003 121.081 23.4597C120.108 22.9192 119.351 22.1624 118.811 21.1534C118.27 20.1804 117.982 19.0273 117.982 17.766C117.982 16.4687 118.27 15.3156 118.811 14.3426C119.351 13.3696 120.144 12.5768 121.117 12.0363C122.09 11.4958 123.243 11.2075 124.504 11.2075C125.658 11.2075 126.703 11.4237 127.64 11.8201C128.54 12.2165 129.297 12.7931 129.874 13.5498L127.964 15.3516C127.063 14.4507 125.946 13.9822 124.577 13.9822Z" fill="#4b4e4f"/>
<path d="M142.703 12.5767C143.531 13.4776 143.964 14.6668 143.964 16.1803V24.1803H140.829V17.0812C140.829 16.1803 140.577 15.4956 140.072 14.955C139.568 14.4505 138.883 14.1623 137.982 14.1623C136.937 14.1623 136.108 14.5226 135.531 15.2073C134.919 15.892 134.631 16.7568 134.631 17.8379V24.1442H131.531V6.41455H134.631V13.8019C135.495 12.1082 137.045 11.2794 139.243 11.2433C140.721 11.2433 141.874 11.6758 142.703 12.5767Z" fill="#4b4e4f"/>
<path d="M64.8649 11.3516V18.6309C64.8649 20.2525 63.6757 21.5498 62.054 21.5498C60.4324 21.5498 59.2432 20.2525 59.2432 18.6309V11.3516H56.1441V18.5228C56.1441 22.703 59.0631 24.2886 62.054 24.2886C65.009 24.2886 67.964 22.739 67.964 18.5228V11.3516H64.8649Z" fill="#4b4e4f"/>
<path d="M12.7928 0C8.32432 0 4.93694 1.15316 2.95495 3.0991C0.828829 5.22523 0 7.78379 0 10.7027C0 15.3153 2.34234 20.2882 5.62162 23.5675C6.48649 24.4324 9.40541 27.027 13.2973 27.027C17.2613 27.027 20.1802 24.6126 22.018 22.7747C25.5856 19.2072 28.8288 13.045 28.8288 9.04504C28.8288 6.77477 27.7838 5.26126 27.027 4.46846C23.8919 1.36936 17.2252 0 12.7928 0ZM18.2703 16C16.7928 17.4774 15.3514 18.054 13.9459 18.054C12.5405 18.054 11.1712 17.4054 10.2703 16.5045C9.33333 15.5675 8.43243 13.9819 8.43243 12.3243C8.43243 10.6666 9.08108 9.51355 9.83784 8.75675C10.8108 7.78378 12.2523 7.13513 14.3784 7.13513C16.0721 7.13513 17.6216 7.53154 19.027 8.93694C19.9279 9.83785 20.1441 10.9189 20.1441 11.6396C20.1441 12.6846 19.7477 14.5225 18.2703 16Z" fill="#4b4e4f"/>
</svg>
