<svg width="145" height="39" viewBox="0 0 145 39" fill="none" xmlns="http://www.w3.org/2000/svg">
<path d="M111.214 35.1069C113.242 35.2583 115.261 35.4299 117.279 35.6115V0H111.214V35.1069ZM13.6634 21.8977L5.76202 0H0V38.6893C2.01822 38.4067 4.03644 38.1242 6.06475 37.8618V16.8219L13.0882 36.994C15.2981 36.7417 17.5081 36.4995 19.7281 36.2674V0H13.6634V21.8977ZM25.5608 35.7124C31.1512 35.2078 36.7619 34.784 42.4028 34.4611V28.4872C38.8003 28.6991 35.2079 28.9413 31.6255 29.2238V20.1822C33.9767 20.162 37.0747 20.0914 39.8195 20.1217V14.1477C37.6297 14.1376 34.1079 14.178 31.6255 14.2083V6.03448H42.4028V0H25.5608V35.7124ZM46.2879 6.03448H52.6352V33.9767C54.6534 33.896 56.6716 33.8355 58.6999 33.785V6.03448H65.0472V0H46.2879V6.03448ZM68.9323 33.6135H74.9971V19.8189H83.2213V13.845H74.9971V6.03448H85.8652V0H68.9323V33.6135ZM144 0H137.34L132.95 10.1819L129.005 0H122.445L129.499 18.1842L121.8 36.0252C123.929 36.2371 126.048 36.4591 128.177 36.6912L132.658 26.3176L137.088 37.7508C139.398 38.0434 141.699 38.3563 144 38.6893H144.01L136.109 18.3153L144 0ZM95.815 0H89.7503V33.9162C95.26 34.1079 100.75 34.3804 106.219 34.7437V28.7697C102.758 28.5376 99.2964 28.3459 95.815 28.1844V0Z" fill="#4b4e4f"/>
</svg>
