<svg width="144" height="38" viewBox="0 0 144 38" fill="none" xmlns="http://www.w3.org/2000/svg">
<path d="M69.3734 25.029L71.2551 30.4472C71.32 30.577 71.4173 30.6419 71.5796 30.6419H75.2133C75.408 30.6419 75.4405 30.5446 75.408 30.3499L67.9134 9.52059C67.8809 9.35837 67.8485 9.32593 67.6862 9.32593H63.1765C63.0467 9.32593 62.9818 9.42326 62.9818 9.55303C62.9169 10.6561 62.8196 10.9806 62.6898 11.305L56.0063 30.3174C55.9738 30.5446 56.0387 30.6419 56.2334 30.6419H59.4778C59.6725 30.6419 59.7698 30.577 59.8347 30.3823L61.6191 25.029H69.3734ZM62.6574 21.4926C63.6307 18.5401 64.9285 14.7441 65.4476 12.5704H65.48C66.1289 14.8415 67.6538 19.3512 68.3351 21.4926H62.6574Z" fill="#4b4e4f"/>
<path d="M84.8962 30.9663C86.8429 30.9663 88.9193 30.6094 91.0282 29.701C91.1904 29.6361 91.2229 29.5712 91.2229 29.409C91.158 28.825 91.0931 27.9814 91.0931 27.3326V7.73617C91.0931 7.60639 91.0931 7.5415 90.9309 7.5415H87.3944C87.2647 7.5415 87.1998 7.60639 87.1998 7.76861V14.4197C86.6482 14.3548 86.2589 14.3224 85.8047 14.3224C80.0945 14.3224 76.5905 18.0859 76.5905 22.7903C76.5905 28.241 80.1918 30.9663 84.8962 30.9663ZM87.1998 27.3326C86.6158 27.5272 85.9669 27.5921 85.318 27.5921C82.7225 27.5921 80.6136 26.1321 80.6136 22.5957C80.6136 19.4486 82.7873 17.5992 85.6749 17.5992C86.2589 17.5992 86.778 17.6641 87.1998 17.8263V27.3326Z" fill="#4b4e4f"/>
<path d="M102.091 14.3225C97.2241 14.3225 94.2068 18.0536 94.2068 22.6607C94.2068 26.7811 96.6076 30.9664 102.026 30.9664C106.601 30.9664 109.813 27.5922 109.813 22.5633C109.813 18.1184 107.087 14.3225 102.091 14.3225ZM101.896 17.5993C104.654 17.5993 105.822 19.9678 105.822 22.6607C105.822 26.0024 104.102 27.6571 102.091 27.6571C99.625 27.6571 98.165 25.5807 98.165 22.5958C98.165 19.5136 99.7223 17.5993 101.896 17.5993Z" fill="#4b4e4f"/>
<path d="M113.088 7.5415C112.958 7.5415 112.861 7.60639 112.861 7.76861V29.9606C112.861 30.0579 112.958 30.2201 113.088 30.2526C114.645 30.7392 116.267 30.9663 117.954 30.9663C122.756 30.9663 127.428 27.9814 127.428 21.9792C127.428 17.6317 124.443 14.3224 119.771 14.3224C118.701 14.3224 117.695 14.4846 116.819 14.7766L116.786 7.80106C116.786 7.57395 116.721 7.5415 116.494 7.5415H113.088ZM123.437 22.3686C123.437 25.9699 120.972 27.657 118.311 27.657C117.76 27.657 117.273 27.6246 116.819 27.4948V18.021C117.338 17.8263 117.954 17.6641 119.09 17.6641C121.653 17.6641 123.437 19.2863 123.437 22.3686Z" fill="#4b4e4f"/>
<path d="M140.269 23.5367C141.859 23.5367 143.156 23.5042 143.611 23.4069C143.773 23.3744 143.838 23.3096 143.87 23.1798C143.968 22.8229 144 22.0767 144 21.1682C144 18.086 142.151 14.3225 137.349 14.3225C132.45 14.3225 129.725 18.3131 129.725 22.8229C129.725 26.8135 131.833 30.9664 137.738 30.9664C139.944 30.9664 141.372 30.6095 142.605 30.0255C142.735 29.9607 142.8 29.8633 142.8 29.6687V26.9758C142.8 26.8135 142.702 26.7811 142.605 26.846C141.372 27.3651 140.042 27.6247 138.582 27.6247C135.272 27.6247 133.78 25.8078 133.683 23.5367H140.269ZM133.683 20.7464C133.942 19.1567 134.948 17.4371 137.187 17.4371C139.652 17.4371 140.301 19.5136 140.301 20.4544C140.301 20.4869 140.301 20.6167 140.301 20.714C140.172 20.7464 139.75 20.7464 138.517 20.7464H133.683Z" fill="#4b4e4f"/>
<path d="M27.2695 0H43.2592V37.9621L27.2695 0Z" fill="#4b4e4f"/>
<path d="M16.0026 0H0V37.9621L16.0026 0Z" fill="#4b4e4f"/>
<path d="M21.6361 13.9912L31.8237 37.9622H25.1465L22.0997 30.3286H14.6445L21.6361 13.9912Z" fill="#4b4e4f"/>
</svg>
