<svg width="144" height="28" viewBox="0 0 144 28" fill="none" xmlns="http://www.w3.org/2000/svg">
<path d="M24.5682 5.26658C20.4142 5.26658 16.9822 8.34064 16.4314 12.331V1.04518C16.4314 0.93458 16.2965 0.88005 16.2194 0.9597L11.4136 5.91025C10.4308 5.49574 9.35004 5.26658 8.21575 5.26658C3.67825 5.26658 0 8.93345 0 13.4569C0 17.9804 3.67825 21.6473 8.21575 21.6473C12.3697 21.6473 15.8018 18.5732 16.3525 14.5828V25.8687C16.3525 25.9793 16.4874 26.0338 16.5645 25.9541L21.3703 21.0036C22.3531 21.4181 23.4339 21.6473 24.5682 21.6473C29.1057 21.6473 32.784 17.9804 32.784 13.4569C32.784 8.93345 29.1057 5.26658 24.5682 5.26658Z" fill="#4b4e4f"/>
<path fill-rule="evenodd" clip-rule="evenodd" d="M63.8329 1.83526C63.8329 2.84885 63.0112 3.67053 61.9976 3.67053C60.984 3.67053 60.1624 2.84885 60.1624 1.83526C60.1624 0.821671 60.984 0 61.9976 0C63.0112 0 63.8329 0.821671 63.8329 1.83526ZM85.4363 0.271969V21.3836C85.4363 21.4949 85.5263 21.5849 85.6375 21.5849H88.2205C88.3317 21.5849 88.4218 21.4949 88.4218 21.3836V0.271969C88.4218 0.160722 88.3317 0.07068 88.2205 0.07068H85.6375C85.5263 0.07068 85.4363 0.160722 85.4363 0.271969ZM54.1341 7.67817V0.277502C54.1341 0.166562 54.2241 0.07652 54.3354 0.076213H56.9183C57.0296 0.076213 57.1196 0.166255 57.1196 0.277502V21.3892C57.1196 21.5004 57.0296 21.5905 56.9183 21.5905H54.3354C54.2241 21.5905 54.1341 21.5004 54.1341 21.3892V19.5693C52.895 20.9786 51.1397 21.8471 48.986 21.8471C44.5429 21.8471 40.9277 18.1581 40.9277 13.624C40.9277 9.08965 44.5426 5.40069 48.986 5.40069C51.1397 5.40069 52.8953 6.26884 54.1341 7.67817ZM44.2027 13.624C44.2027 16.4802 46.3521 18.8038 49.151 18.8038C51.95 18.8038 53.8434 16.4796 53.8434 13.6237C53.8434 10.7679 51.95 8.4443 49.151 8.4443C46.3521 8.4443 44.2027 10.7682 44.2027 13.624ZM94.7927 7.67602C96.0318 6.26638 97.7871 5.39823 99.9404 5.39823C104.384 5.39823 107.999 9.08719 107.999 13.6213C107.999 18.1556 104.384 21.8446 99.9404 21.8446C97.7871 21.8446 96.0314 20.9765 94.7927 19.5671V27.1482C94.7927 27.2594 94.7026 27.3495 94.5914 27.3495H92.0084C91.8972 27.3495 91.8071 27.2594 91.8071 27.1482V6.03651C91.8071 5.92527 91.8972 5.83522 92.0084 5.83522H94.5914C94.7026 5.83522 94.7927 5.92527 94.7927 6.03651V7.67602ZM95.0834 13.6216C95.0834 16.4774 96.9767 18.801 99.7754 18.801C102.574 18.801 104.724 16.4774 104.724 13.6216C104.724 10.7654 102.574 8.44184 99.7754 8.44184C96.977 8.44184 95.0834 10.7657 95.0834 13.6216ZM79.0647 7.67848V6.03652C79.0647 5.92558 79.1551 5.83523 79.266 5.83523H81.849C81.9602 5.83523 82.0503 5.92527 82.0503 6.03652V21.3895C82.0503 21.5007 81.9602 21.5908 81.849 21.5908H79.266C79.1548 21.5908 79.0647 21.5007 79.0647 21.3895V19.5696C77.8257 20.9789 76.0703 21.8474 73.9167 21.8474C69.4736 21.8474 65.8583 18.1584 65.8583 13.6243C65.8583 9.08997 69.4733 5.401 73.9167 5.401C76.0703 5.401 77.8257 6.26916 79.0647 7.67848ZM69.1337 13.624C69.1337 16.4802 71.283 18.8038 74.082 18.8038C76.8807 18.8038 78.7743 16.4796 78.7743 13.6237C78.7743 10.7679 76.881 8.44431 74.082 8.44431C71.283 8.44431 69.1337 10.7682 69.1337 13.624ZM122.83 6.03652V7.67848C121.591 6.26916 119.835 5.401 117.682 5.401C113.238 5.401 109.623 9.08997 109.623 13.6243C109.623 18.1584 113.238 21.8474 117.682 21.8474C119.835 21.8474 121.591 20.9789 122.83 19.5696V21.3895C122.83 21.5007 122.92 21.5908 123.031 21.5908H125.614C125.725 21.5908 125.815 21.5007 125.815 21.3895V6.03652C125.815 5.92527 125.725 5.83523 125.614 5.83523H123.031C122.92 5.83523 122.83 5.92558 122.83 6.03652ZM117.847 18.8038C115.048 18.8038 112.898 16.4802 112.898 13.624C112.898 10.7682 115.048 8.44431 117.847 8.44431C120.646 8.44431 122.539 10.7679 122.539 13.6237C122.539 16.4796 120.645 18.8038 117.847 18.8038ZM141.014 0.277502V7.67817C139.775 6.26884 138.02 5.40069 135.866 5.40069C131.423 5.40069 127.808 9.08965 127.808 13.624C127.808 18.1581 131.423 21.8471 135.866 21.8471C138.02 21.8471 139.775 20.9786 141.014 19.5693V21.3892C141.014 21.5004 141.104 21.5905 141.215 21.5905H143.798C143.91 21.5905 144 21.5004 144 21.3892V0.277502C144 0.166255 143.91 0.076213 143.798 0.076213H141.215C141.104 0.07652 141.014 0.166562 141.014 0.277502ZM136.031 18.8038C133.232 18.8038 131.083 16.4802 131.083 13.624C131.083 10.7682 133.232 8.4443 136.031 8.4443C138.83 8.4443 140.723 10.7679 140.723 13.6237C140.723 16.4796 138.83 18.8038 136.031 18.8038ZM60.505 21.3836V6.03652C60.505 5.92559 60.595 5.83524 60.7063 5.83524H63.2892C63.4005 5.83524 63.4905 5.92528 63.4905 6.03652V21.3836C63.4905 21.4949 63.4005 21.5849 63.2892 21.5849H60.7063C60.595 21.5849 60.505 21.4949 60.505 21.3836Z" fill="#4b4e4f"/>
</svg>
