<svg width="144" height="33" viewBox="0 0 144 33" fill="none" xmlns="http://www.w3.org/2000/svg">
<path d="M19.5507 0V32.5452L27.8735 25.9106V4.51472L19.5507 0Z" fill="#4b4e4f"/>
<path d="M15.7034 25.4395L8.99017 28.3839V2.82666L15.7034 4.82884V25.4395Z" fill="#4b4e4f"/>
<path d="M0 24.6938L5.1036 23.359V7.02755L0 6.20312V24.6938Z" fill="#4b4e4f"/>
<path d="M55.2759 4.51465L48.2094 16.1744L41.0251 4.51465H37.217V25.9105H40.7895V10.2856L48.0916 22.0239L55.4329 10.2071V25.9105H58.9662V4.51465H55.2759Z" fill="#4b4e4f"/>
<path d="M70.94 25.9106L70.9008 23.9869C69.8408 25.5573 68.0741 26.2639 66.229 26.2639C63.5202 26.2639 61.5965 24.4973 61.5965 21.9455C61.5965 19.1581 63.3631 17.5093 66.8964 16.9597L70.783 16.3315V16.096C70.783 14.5256 69.6052 13.6227 67.5245 13.6227C65.5616 13.6227 63.8735 14.4471 62.4602 15.7819V12.3272C63.7557 11.2672 65.5616 10.5605 67.7601 10.5605C71.9607 10.5605 74.1985 12.6805 74.1985 16.2923V25.9106H70.94ZM67.0927 23.398C69.2912 23.398 70.8222 21.9455 70.8222 19.904V19.0796L67.4853 19.6292C65.8757 19.904 65.0512 20.6107 65.0512 21.6707C65.0905 22.7699 65.9149 23.398 67.0927 23.398Z" fill="#4b4e4f"/>
<path d="M86.0152 14.3295C85.8582 14.251 85.5441 14.2118 85.1123 14.2118C82.5212 14.2118 80.9116 16.2139 80.9116 19.3154V25.9108H77.3784V10.9533H80.8724V13.5051C81.6183 11.7777 83.3849 10.6392 85.3478 10.6392C85.7404 10.6392 85.976 10.6785 86.0152 10.7178V14.3295Z" fill="#4b4e4f"/>
<path d="M88.2922 4.51465V25.9105H91.7862V19.9825L92.5714 19.2758L97.9106 25.9105H102.268L95.241 17.4307L101.758 10.953H97.4395L91.7862 16.6062V4.51465H88.2922Z" fill="#4b4e4f"/>
<path d="M115.577 24.6936C114.007 25.675 112.044 26.2639 109.806 26.2639C104.859 26.2639 101.719 22.8877 101.719 18.373C101.719 13.8975 104.82 10.5605 109.256 10.5605C113.614 10.5605 116.441 13.8582 116.441 18.2944C116.441 18.7655 116.441 19.0404 116.362 19.5115H105.252C105.527 21.5921 107.254 23.241 110.041 23.241C111.926 23.241 113.771 22.5736 115.577 21.2388V24.6936ZM112.986 16.8811C112.79 14.8397 111.298 13.4264 109.178 13.4264C107.058 13.4264 105.487 15.1145 105.252 16.8811H112.986Z" fill="#4b4e4f"/>
<path d="M125.352 23.0446C125.941 23.0446 126.53 22.9268 127.001 22.5735V25.7142C126.412 26.0675 125.549 26.2638 124.292 26.2638C121.269 26.2638 119.503 24.4186 119.503 21.278V13.9366H116.833L122.997 6.08496V10.953H126.962V13.9366H122.997V20.6498C123.036 22.3379 123.743 23.0446 125.352 23.0446Z" fill="#4b4e4f"/>
<path d="M144 18.4122C144 22.8092 140.624 26.2639 136.031 26.2639C131.437 26.2639 128.061 22.8092 128.061 18.4122C128.061 14.0153 131.437 10.5605 136.031 10.5605C140.624 10.5605 144 14.0153 144 18.4122ZM131.594 18.4122C131.594 20.964 133.557 23.0447 136.07 23.0447C138.582 23.0447 140.545 21.0033 140.545 18.4122C140.545 15.8604 138.582 13.7797 136.07 13.7797C133.518 13.819 131.594 15.8604 131.594 18.4122Z" fill="#4b4e4f"/>
</svg>
