<svg width="507" height="161" viewBox="0 0 507 161" fill="none" xmlns="http://www.w3.org/2000/svg">
<path d="M3.26 12.3H3.47H3.38C2.36 12.33 1.79 12.93 1.79 13.98V30.63C1.79 38.34 4.19 42.6 13.04 42.6C19.28 42.6 22.31 40.56 23.72 36.96H23.96L24.11 40.32C24.17 41.37 24.71 41.91 25.64 42C26.6 41.91 27.11 41.37 27.11 40.32V13.98C27.11 12.93 26.54 12.33 25.52 12.3C24.5 12.33 23.96 12.93 23.96 13.98V30.18C23.96 35.67 21.08 39.72 13.7 39.72C6.08 39.72 4.94 35.67 4.94 30.18V13.98C4.94 12.93 4.4 12.33 3.38 12.3H3.26ZM25.43 42C25.49 42 25.58 42 25.64 42H25.85H25.43ZM25.43 12.3H25.64C25.61 12.3 25.58 12.3 25.52 12.3H25.43ZM51.4541 6.3C53.2241 6.3 54.5441 4.95 54.5441 3.21C54.5441 1.47 53.2241 0.149997 51.4541 0.149997C49.7141 0.149997 48.3941 1.47 48.3941 3.21C48.3941 4.95 49.7141 6.3 51.4541 6.3ZM39.1241 13.89C39.1241 15 39.8441 15.51 40.9241 15.51H48.3041C50.3441 15.51 50.8541 15.81 50.8541 17.85V33.75C50.8541 38.4 54.0941 41.97 58.7441 41.97H63.8441C64.9241 41.97 65.6141 41.49 65.6141 40.41C65.6141 39.36 64.9241 38.88 63.8441 38.88H59.3741C56.3441 38.88 54.0041 36.57 54.0041 33.51V17.16C54.0041 13.92 52.3841 12.3 49.1141 12.3H40.9241C39.8441 12.3 39.1241 12.81 39.1241 13.89ZM65.6141 40.44V40.41V40.38V40.44ZM121.982 42.78C127.202 42.78 132.002 40.23 133.772 36.51L138.872 41.88C139.532 42.63 140.462 43.17 141.182 42.48L141.452 42.21C142.112 41.58 141.842 40.53 141.332 39.96L123.332 20.97C120.662 18.12 117.542 14.94 117.542 11.07C117.542 7.98 119.552 6.06 123.242 6.06C126.392 6.06 128.642 7.53 128.672 9.93C128.702 10.89 129.362 11.46 130.322 11.46C131.192 11.46 131.852 10.95 131.852 9.84C131.852 6.63 129.242 3 123.332 3C117.182 3 114.362 6.84 114.362 11.19C114.362 13.98 115.502 16.38 116.912 18.36C111.902 19.98 108.722 24.54 108.722 30C108.722 37.29 114.362 42.78 121.982 42.78ZM111.992 29.85C111.992 26.1 114.002 22.17 118.922 20.76L131.762 34.32C130.262 37.77 126.422 39.6 122.522 39.6C116.822 39.6 111.992 35.67 111.992 29.85ZM132.902 21.69C132.902 23.31 134.252 24.66 135.872 24.66C137.522 24.66 138.872 23.31 138.872 21.69C138.872 20.04 137.522 18.69 135.872 18.69C134.252 18.69 132.902 20.04 132.902 21.69ZM187.83 12.3H188.04H187.95C186.93 12.33 186.36 12.93 186.36 13.98V30.63C186.36 38.34 188.76 42.6 197.61 42.6C203.85 42.6 206.88 40.56 208.29 36.96H208.53L208.68 40.32C208.74 41.37 209.28 41.91 210.21 42C211.17 41.91 211.68 41.37 211.68 40.32V13.98C211.68 12.93 211.11 12.33 210.09 12.3C209.07 12.33 208.53 12.93 208.53 13.98V30.18C208.53 35.67 205.65 39.72 198.27 39.72C190.65 39.72 189.51 35.67 189.51 30.18V13.98C189.51 12.93 188.97 12.33 187.95 12.3H187.83ZM210 42C210.06 42 210.15 42 210.21 42H210.42H210ZM210 12.3H210.21C210.18 12.3 210.15 12.3 210.09 12.3H210ZM222.404 42H223.664C224.324 42 224.774 41.82 225.224 41.31L235.934 29.01L246.644 41.31C247.094 41.82 247.544 42 248.204 42H249.464C250.574 42 250.874 41.25 250.124 40.44L237.974 26.88L249.374 13.86C250.094 13.05 249.794 12.3 248.684 12.3H247.484C246.824 12.3 246.374 12.48 245.924 12.99L235.934 24.81L225.914 12.99C225.434 12.48 225.014 12.3 224.354 12.3H223.154C222.044 12.3 221.714 13.05 222.464 13.86L233.894 26.88L221.744 40.44C220.994 41.25 221.294 42 222.404 42ZM309.223 42.75C314.983 42.75 318.493 40.17 320.023 37.32H320.503L320.773 40.53C320.863 41.37 321.343 42 322.152 42H322.333C323.083 42 323.682 41.4 323.682 40.53V5.28C323.682 4.2 323.143 3.63 322.123 3.6C321.103 3.63 320.533 4.2 320.533 5.28V15.48H320.293C318.343 13.32 315.073 11.79 310.093 11.79H309.643C299.263 11.79 295.753 18.84 295.753 27.15C295.753 36.72 300.463 42.75 309.223 42.75ZM298.843 27.24C298.843 18.03 303.013 14.67 309.883 14.67C315.823 14.67 320.533 17.25 320.533 24.9V29.58C320.533 36.54 315.793 39.81 309.613 39.81C303.133 39.81 298.843 36.45 298.843 27.24ZM322.003 3.6H322.243C322.213 3.6 322.152 3.6 322.123 3.6H322.003ZM348.747 42.75H349.347C354.087 42.75 359.037 41.73 359.037 40.17V39.66C359.037 39 358.827 38.31 357.837 38.58C357.057 38.79 353.997 39.75 349.497 39.75H349.107C339.027 39.75 335.937 34.65 335.907 27.36H357.987C360.117 27.36 360.507 26.49 360.507 24.06C360.507 17.34 357.447 11.7 347.967 11.7H346.857C337.437 11.7 332.847 17.64 332.847 27.18C332.847 34.71 335.517 42.75 348.747 42.75ZM336.057 24.51C336.747 18.57 340.077 14.61 347.067 14.61H348.027C355.467 14.61 357.747 18.93 357.687 24.51H336.057ZM383.081 42.75C392.921 42.75 396.281 39.18 396.281 33.87C396.281 28.29 392.441 26.64 387.671 26.01L381.791 25.2C376.511 24.45 374.231 23.34 374.231 19.86C374.231 16.56 376.271 14.73 383.231 14.73C387.971 14.73 390.581 15.66 392.531 16.14C393.821 16.47 394.541 16.08 394.541 14.88V14.79C394.541 12.66 388.391 11.7 383.441 11.7C374.501 11.7 371.081 14.73 371.081 19.8C371.081 25.08 374.711 27.27 380.111 27.96L385.721 28.71C390.881 29.4 393.131 30.24 393.131 34.17C393.131 37.98 390.911 39.72 383.381 39.72C377.891 39.72 375.251 38.76 373.331 38.22C371.921 37.83 371.291 38.34 371.291 39.42V39.69C371.291 41.79 378.011 42.75 383.081 42.75ZM420.595 6.3C422.365 6.3 423.685 4.95 423.685 3.21C423.685 1.47 422.365 0.149997 420.595 0.149997C418.855 0.149997 417.535 1.47 417.535 3.21C417.535 4.95 418.855 6.3 420.595 6.3ZM408.265 13.89C408.265 15 408.985 15.51 410.065 15.51H417.445C419.485 15.51 419.995 15.81 419.995 17.85V33.75C419.995 38.4 423.235 41.97 427.885 41.97H432.985C434.065 41.97 434.755 41.49 434.755 40.41C434.755 39.36 434.065 38.88 432.985 38.88H428.515C425.485 38.88 423.145 36.57 423.145 33.51V17.16C423.145 13.92 421.525 12.3 418.255 12.3H410.065C408.985 12.3 408.265 12.81 408.265 13.89ZM434.755 40.44V40.41V40.38V40.44ZM456.249 35.4C462.699 35.4 466.179 32.88 467.049 31.44H467.349V37.23C467.349 42.93 462.249 43.56 456.789 43.56C452.619 43.56 450.249 43.2 448.659 42.9C447.759 42.72 447.039 43.35 447.039 44.19C447.039 45.06 447.819 45.66 448.899 45.87C450.609 46.17 453.219 46.53 456.879 46.53C463.599 46.53 470.259 45.48 470.259 37.14V15.84C470.259 14.52 469.959 13.68 468.189 13.02C466.209 12.27 462.339 11.7 458.769 11.7C447.909 11.7 444.459 16.92 444.459 24.03C444.459 31.65 448.389 35.4 456.249 35.4ZM447.549 23.91C447.549 18.78 449.679 14.64 458.769 14.64C460.509 14.64 463.839 14.79 466.869 15.66C467.259 15.78 467.469 16.08 467.469 16.5V24.12C467.469 29.22 463.539 32.52 456.519 32.52C450.969 32.52 447.549 30.39 447.549 23.91ZM505.523 42H505.313H505.403C506.423 41.97 506.993 41.37 506.993 40.32V23.67C506.993 15.96 504.593 11.7 495.743 11.7C489.503 11.7 486.473 13.74 485.063 17.34H484.823L484.673 13.98C484.613 12.93 484.073 12.39 483.143 12.3C482.183 12.39 481.673 12.93 481.673 13.98V40.32C481.673 41.37 482.243 41.97 483.263 42C484.283 41.97 484.823 41.37 484.823 40.32V24.12C484.823 18.63 487.703 14.58 495.083 14.58C502.703 14.58 503.843 18.63 503.843 24.12V40.32C503.843 41.37 504.383 41.97 505.403 42C505.463 42 505.493 42 505.523 42ZM482.933 12.3H483.353C483.293 12.3 483.203 12.3 483.143 12.3H482.933ZM483.143 42H483.263C483.293 42 483.323 42 483.353 42H483.143ZM13.94 101.75C23.78 101.75 27.14 98.18 27.14 92.87C27.14 87.29 23.3 85.64 18.53 85.01L12.65 84.2C7.37 83.45 5.09 82.34 5.09 78.86C5.09 75.56 7.13 73.73 14.09 73.73C18.83 73.73 21.44 74.66 23.39 75.14C24.68 75.47 25.4 75.08 25.4 73.88V73.79C25.4 71.66 19.25 70.7 14.3 70.7C5.36 70.7 1.94 73.73 1.94 78.8C1.94 84.08 5.57 86.27 10.97 86.96L16.58 87.71C21.74 88.4 23.99 89.24 23.99 93.17C23.99 96.98 21.77 98.72 14.24 98.72C8.75 98.72 6.11 97.76 4.19 97.22C2.78 96.83 2.15 97.34 2.15 98.42V98.69C2.15 100.79 8.87 101.75 13.94 101.75ZM53.4341 101.75H54.0341C58.7741 101.75 63.7241 100.73 63.7241 99.17V98.66C63.7241 98 63.5141 97.31 62.5241 97.58C61.7441 97.79 58.6841 98.75 54.1841 98.75H53.7941C43.7141 98.75 40.6241 93.65 40.5941 86.36H62.6741C64.8041 86.36 65.1941 85.49 65.1941 83.06C65.1941 76.34 62.1341 70.7 52.6541 70.7H51.5441C42.1241 70.7 37.5341 76.64 37.5341 86.18C37.5341 93.71 40.2041 101.75 53.4341 101.75ZM40.7441 83.51C41.4341 77.57 44.7641 73.61 51.7541 73.61H52.7141C60.1541 73.61 62.4341 77.93 62.3741 83.51H40.7441ZM79.9981 84.8C79.9981 78.26 83.6281 73.58 90.3181 73.58C95.1481 73.58 99.1381 75.98 99.1381 81.14V82.94C99.1381 83.87 99.6481 84.38 100.488 84.38H100.668C101.838 84.38 102.198 83.72 102.198 82.34V80.48C102.198 73.67 97.0381 70.7 90.8281 70.7C85.8781 70.7 82.2781 72.56 80.4181 76.55H79.9981L79.8481 72.95C79.7881 71.93 79.2481 71.39 78.3181 71.3C77.3581 71.39 76.8481 71.93 76.8481 72.98V99.32C76.8481 100.37 77.3881 100.97 78.4081 101C79.4281 100.97 79.9981 100.37 79.9981 99.32V84.8ZM78.1081 71.3H78.5281C78.4681 71.3 78.3781 71.3 78.3181 71.3H78.1081ZM78.3181 101H78.4081C78.4681 101 78.4981 101 78.5281 101H78.3181ZM124.322 101H126.062C127.442 101 127.952 100.61 128.492 99.38L139.442 73.28C139.922 72.14 139.442 71.33 138.212 71.3C137.282 71.33 136.712 71.72 136.322 72.59L126.122 97.31C126.002 97.58 125.762 97.79 125.432 97.79H124.922C124.592 97.79 124.352 97.58 124.232 97.31L114.062 72.59C113.672 71.72 113.102 71.33 112.172 71.3C110.942 71.33 110.462 72.14 110.942 73.28L121.892 99.38C122.432 100.61 122.942 101 124.322 101ZM112.112 71.3H112.232C112.202 71.3 112.202 71.3 112.172 71.3H112.112ZM138.152 71.3H138.272C138.242 71.3 138.242 71.3 138.212 71.3H138.152ZM162.196 65.3C163.966 65.3 165.286 63.95 165.286 62.21C165.286 60.47 163.966 59.15 162.196 59.15C160.456 59.15 159.136 60.47 159.136 62.21C159.136 63.95 160.456 65.3 162.196 65.3ZM149.866 72.89C149.866 74 150.586 74.51 151.666 74.51H159.046C161.086 74.51 161.596 74.81 161.596 76.85V92.75C161.596 97.4 164.836 100.97 169.486 100.97H174.586C175.666 100.97 176.356 100.49 176.356 99.41C176.356 98.36 175.666 97.88 174.586 97.88H170.116C167.086 97.88 164.746 95.57 164.746 92.51V76.16C164.746 72.92 163.126 71.3 159.856 71.3H151.666C150.586 71.3 149.866 71.81 149.866 72.89ZM176.356 99.44V99.41V99.38V99.44ZM201.84 101.75C204.99 101.75 207.9 101.21 210.36 100.1C211.14 99.74 211.53 99.26 211.53 98.42V98.24C211.53 97.19 210.9 96.71 209.7 97.19C207.57 98.03 205.02 98.54 202.08 98.54C193.62 98.54 188.58 94.43 188.58 86.12C188.58 79.91 191.4 73.76 199.98 73.76H200.76C205.23 73.76 208.56 75.41 208.74 79.34C208.74 80.45 209.31 81.23 210.33 81.23H210.48C211.65 81.23 212.04 80.24 212.04 78.8C212.04 73.46 206.88 70.7 200.85 70.7H199.59C189.63 70.7 185.4 77.81 185.4 85.97C185.4 96.11 191.64 101.75 201.84 101.75ZM238.004 101.75H238.604C243.344 101.75 248.294 100.73 248.294 99.17V98.66C248.294 98 248.084 97.31 247.094 97.58C246.314 97.79 243.254 98.75 238.754 98.75H238.364C228.284 98.75 225.194 93.65 225.164 86.36H247.244C249.374 86.36 249.764 85.49 249.764 83.06C249.764 76.34 246.704 70.7 237.224 70.7H236.114C226.694 70.7 222.104 76.64 222.104 86.18C222.104 93.71 224.774 101.75 238.004 101.75ZM225.314 83.51C226.004 77.57 229.334 73.61 236.324 73.61H237.284C244.724 73.61 247.004 77.93 246.944 83.51H225.314ZM305.203 101H304.993H305.083C306.103 100.97 306.673 100.37 306.673 99.32V80.57H321.103C322.213 80.57 322.903 80.09 322.903 79.01C322.903 77.96 322.213 77.48 321.103 77.48H306.673V72.44C306.673 66.02 310.273 65.27 314.863 65.27C317.323 65.27 319.783 65.48 321.433 65.78C322.213 65.9 322.903 65.63 322.903 64.73V64.34C322.903 63.41 322.453 62.99 321.343 62.72C319.933 62.33 317.323 62.15 314.923 62.15C309.343 62.15 303.523 63.14 303.523 71.75V77.48H297.823C296.713 77.48 296.053 77.96 296.053 79.01C296.053 80.09 296.713 80.57 297.823 80.57H303.523V99.32C303.523 100.37 304.063 100.97 305.083 101C305.143 101 305.173 101 305.203 101ZM296.053 79.01V78.98V79.01ZM322.903 79.04V79.01V78.98V79.04ZM346.077 101.75H347.337C355.977 101.75 361.497 95.39 361.497 86.21C361.497 77.03 355.977 70.7 347.367 70.7H346.017C337.407 70.7 331.887 77.03 331.887 86.21C331.887 95.39 337.407 101.75 346.077 101.75ZM335.007 86.21C335.007 78.59 339.267 73.61 346.077 73.61H347.307C354.147 73.61 358.407 78.59 358.407 86.21C358.407 93.8 354.147 98.84 347.307 98.84H346.077C339.267 98.84 335.007 93.8 335.007 86.21ZM375.311 84.8C375.311 78.26 378.941 73.58 385.631 73.58C390.461 73.58 394.451 75.98 394.451 81.14V82.94C394.451 83.87 394.961 84.38 395.801 84.38H395.981C397.151 84.38 397.511 83.72 397.511 82.34V80.48C397.511 73.67 392.351 70.7 386.141 70.7C381.191 70.7 377.591 72.56 375.731 76.55H375.311L375.161 72.95C375.101 71.93 374.561 71.39 373.631 71.3C372.671 71.39 372.161 71.93 372.161 72.98V99.32C372.161 100.37 372.701 100.97 373.721 101C374.741 100.97 375.311 100.37 375.311 99.32V84.8ZM373.421 71.3H373.841C373.781 71.3 373.691 71.3 373.631 71.3H373.421ZM373.631 101H373.721C373.781 101 373.811 101 373.841 101H373.631Z" fill="white"/>
<path d="M3.35 160H14.78C24.41 160 28.34 156.31 28.34 149.29C28.34 144.61 26.51 140.92 20.78 139.69V139.15C25.22 137.77 26.42 134.26 26.42 130.84C26.42 126.43 24.38 121.6 15.05 121.6H3.35C1.76 121.6 0.59 122.71 0.59 124.3V157.3C0.59 158.89 1.76 160 3.35 160ZM3.86 155.8V141.16H14.48C22.4 141.16 25.04 144.28 25.04 149.14C25.04 154.42 21.95 156.85 14.48 156.85H4.91C4.25 156.85 3.86 156.46 3.86 155.8ZM3.86 138.16V125.8C3.86 125.14 4.25 124.75 4.91 124.75H14.81C20.6 124.75 23.21 126.52 23.21 130.84C23.21 135.16 20.57 138.16 14.81 138.16H3.86ZM39.8441 160H62.4041C63.4241 160 64.0241 159.46 64.0841 158.5C64.0241 157.51 63.4241 157 62.4041 157H41.3141V156.1C41.3141 141.22 64.0541 145.96 64.0541 131.23C64.0541 125.65 60.9041 120.85 51.4541 120.85C42.8141 120.85 38.2541 124.93 38.2541 130.93C38.2541 132.19 38.8541 132.64 39.6341 132.64H39.9641C40.6841 132.64 41.3441 132.22 41.4041 130.96C41.5241 126.85 44.4941 123.82 51.3041 123.82C58.5641 123.82 61.1141 127.24 61.1141 131.26C61.1141 143.29 38.1641 138.82 38.1641 156.52V158.32C38.1641 159.4 38.7641 160 39.8441 160ZM64.0841 158.5C64.0841 158.44 64.0841 158.38 64.0841 158.32V158.68V158.5ZM77.1781 160H88.6081C98.2381 160 102.168 156.31 102.168 149.29C102.168 144.61 100.338 140.92 94.6081 139.69V139.15C99.0481 137.77 100.248 134.26 100.248 130.84C100.248 126.43 98.2081 121.6 88.8781 121.6H77.1781C75.5881 121.6 74.4181 122.71 74.4181 124.3V157.3C74.4181 158.89 75.5881 160 77.1781 160ZM77.6881 155.8V141.16H88.3081C96.2281 141.16 98.8681 144.28 98.8681 149.14C98.8681 154.42 95.7781 156.85 88.3081 156.85H78.7381C78.0781 156.85 77.6881 156.46 77.6881 155.8ZM77.6881 138.16V125.8C77.6881 125.14 78.0781 124.75 78.7381 124.75H88.6381C94.4281 124.75 97.0381 126.52 97.0381 130.84C97.0381 135.16 94.3981 138.16 88.6381 138.16H77.6881ZM161.596 160.75C171.436 160.75 174.796 157.18 174.796 151.87C174.796 146.29 170.956 144.64 166.186 144.01L160.306 143.2C155.026 142.45 152.746 141.34 152.746 137.86C152.746 134.56 154.786 132.73 161.746 132.73C166.486 132.73 169.096 133.66 171.046 134.14C172.336 134.47 173.056 134.08 173.056 132.88V132.79C173.056 130.66 166.906 129.7 161.956 129.7C153.016 129.7 149.596 132.73 149.596 137.8C149.596 143.08 153.226 145.27 158.626 145.96L164.236 146.71C169.396 147.4 171.646 148.24 171.646 152.17C171.646 155.98 169.426 157.72 161.896 157.72C156.406 157.72 153.766 156.76 151.846 156.22C150.436 155.83 149.806 156.34 149.806 157.42V157.69C149.806 159.79 156.526 160.75 161.596 160.75ZM194.97 160.75H196.08C201.03 160.75 206.13 159.13 208.83 155.59L209.1 158.53C209.16 159.37 209.67 160 210.45 160H210.66C211.41 160 212.01 159.4 212.01 158.53V139.87C212.01 132.1 208.41 129.7 198.57 129.7C192.96 129.7 188.22 130.51 188.22 132.1V132.82C188.22 133.45 188.58 134.02 189.48 133.87C190.05 133.75 193.32 132.85 198.51 132.85C207.15 132.85 208.89 135.01 208.89 140.71V142.45H193.77C187.26 142.45 184.68 146.41 184.68 151.57C184.68 157.42 188.1 160.75 194.97 160.75ZM187.86 151.36C187.86 147.88 189.36 145.39 194.19 145.39H208.89V149.53C208.89 155.77 202.35 157.69 196.26 157.69H195.06C190.47 157.69 187.86 155.89 187.86 151.36ZM231.884 160.75H232.994C237.944 160.75 243.044 159.13 245.744 155.59L246.014 158.53C246.074 159.37 246.584 160 247.364 160H247.574C248.324 160 248.924 159.4 248.924 158.53V139.87C248.924 132.1 245.324 129.7 235.484 129.7C229.874 129.7 225.134 130.51 225.134 132.1V132.82C225.134 133.45 225.494 134.02 226.394 133.87C226.964 133.75 230.234 132.85 235.424 132.85C244.064 132.85 245.804 135.01 245.804 140.71V142.45H230.684C224.174 142.45 221.594 146.41 221.594 151.57C221.594 157.42 225.014 160.75 231.884 160.75ZM224.774 151.36C224.774 147.88 226.274 145.39 231.104 145.39H245.804V149.53C245.804 155.77 239.264 157.69 233.174 157.69H231.974C227.384 157.69 224.774 155.89 224.774 151.36ZM272.338 160.75C282.178 160.75 285.538 157.18 285.538 151.87C285.538 146.29 281.698 144.64 276.928 144.01L271.048 143.2C265.768 142.45 263.488 141.34 263.488 137.86C263.488 134.56 265.528 132.73 272.488 132.73C277.228 132.73 279.838 133.66 281.788 134.14C283.078 134.47 283.798 134.08 283.798 132.88V132.79C283.798 130.66 277.648 129.7 272.698 129.7C263.758 129.7 260.338 132.73 260.338 137.8C260.338 143.08 263.968 145.27 269.368 145.96L274.978 146.71C280.138 147.4 282.388 148.24 282.388 152.17C282.388 155.98 280.168 157.72 272.638 157.72C267.148 157.72 264.508 156.76 262.588 156.22C261.178 155.83 260.548 156.34 260.548 157.42V157.69C260.548 159.79 267.268 160.75 272.338 160.75Z" fill="url(#paint0_linear_1_7)"/>
<defs>
<linearGradient id="paint0_linear_1_7" x1="124" y1="131" x2="418.811" y2="245.736" gradientUnits="userSpaceOnUse">
<stop stop-color="#D4F5FF"/>
<stop offset="0.260417" stop-color="#9F74C7"/>
<stop offset="0.453125" stop-color="#E899F6"/>
<stop offset="1" stop-color="#F5E2F0"/>
</linearGradient>
</defs>
</svg>
