<svg width="144" height="23" viewBox="0 0 144 23" fill="none" xmlns="http://www.w3.org/2000/svg">
<path d="M42.2 9.7C41.2 8.6 39.7 7.2 37.1 7.2C32.9 7.2 29.7 10.4 29.7 14.7C29.7 19.3 33.1 22.3 37 22.3C39.4 22.3 41.1 21.2 42.2 19.9H42.3V21.8H44.6V7.6H42.3V9.7H42.2ZM37.4 20.2C33.9 20.2 32.2 17.4 32.2 14.7C32.2 12 33.9 9.2 37.4 9.2C40.2 9.2 42.4 11.4 42.4 14.8C42.5 18 40 20.2 37.4 20.2ZM68.2 13.5V21.7H65.9V13.3C65.9 11.1 64.9 9.2 62.5 9.2C60.5 9.2 58.7 10.6 58.7 13.9V21.7H56.3V13.3C56.3 11 55 9.2 52.9 9.2C50.5 9.2 49 10.9 49 13.9V21.7H46.7V7.6H49V9.4H49.1C50 8.1 51.5 7.2 53.3 7.2C55.5 7.2 57.3 8.5 57.9 10.1C58.6 8.7 60.3 7.2 62.8 7.2C66 7.2 68.2 9.4 68.2 13.5ZM94 7.2C89.8 7.2 86.5 10.4 86.5 14.7C86.5 19 89.8 22.3 94 22.3C98.4 22.3 101.5 18.9 101.5 14.7C101.6 10.4 98.4 7.2 94 7.2ZM94 20.1C91.3 20.1 88.9 17.8 88.9 14.6C88.9 11.5 91 9.2 94 9.2C97.1 9.2 99.1 11.6 99.1 14.6C99.2 17.8 97 20.1 94 20.1ZM110.6 7.2C106.4 7.2 103.1 10.4 103.1 14.7C103.1 19 106.4 22.3 110.6 22.3C115 22.3 118.1 18.9 118.1 14.7C118.2 10.4 115 7.2 110.6 7.2ZM110.6 20.1C107.9 20.1 105.5 17.8 105.5 14.6C105.5 11.5 107.6 9.2 110.6 9.2C113.7 9.2 115.7 11.6 115.7 14.6C115.8 17.8 113.6 20.1 110.6 20.1ZM129.2 7.6H130.9V21.7H129.2V15.1H121.7V21.7H120V7.6H121.7V13.6H129.2V7.6ZM139.1 15.7C140.9 15.3 142.4 13.8 142.4 11.8C142.4 9.9 141.1 7.6 137.6 7.6H133.5V21.7H135.2V15.8H137.1L141.3 21.7H143.5L139.1 15.7ZM135.3 14.3V9.2H137.8C139.6 9.2 140.6 10.2 140.6 11.8C140.6 13.2 139.7 14.3 137.8 14.3H135.3ZM20.6 7.2C18.4 7.2 16.4 8.2 15.4 9.2L15.1 9.6V0H12.8V14.9C12.8 19.5 16.3 22.3 20.4 22.3C24.9 22.3 28.1 19 28.1 14.6C28.1 10.5 24.7 7.2 20.6 7.2ZM20.4 20.1C17.5 20.1 15 17.9 15 14.8C15 11.2 17.1 9.3 20.5 9.3C23.9 9.3 25.8 11.8 25.8 14.7C25.7 17.9 23.7 20.1 20.4 20.1ZM77.7 7.2C75.5 7.2 73.5 8.2 72.5 9.2L72.3 9.6V1.6H70V14.9C70 19.5 73.5 22.3 77.6 22.3C82.1 22.3 85.3 19 85.3 14.6C85.2 10.5 81.8 7.2 77.7 7.2ZM77.5 20.1C74.6 20.1 72.1 17.9 72.1 14.8C72.1 11.2 74.2 9.3 77.6 9.3C81 9.3 82.9 11.8 82.9 14.7C82.8 17.9 80.8 20.1 77.5 20.1ZM11.7 10C11.7 10 10.7 9.8 9.8 9.7C8.8 9.6 8.4 9.4 7.2 8.9C5.9 8.4 4.8 7.2 3.7 5.8C2.6 4.4 0 2.3 0 2.3C0 2.3 0.8 2.4 1.6 2.6C2.3 2.7 4 3.2 5.8 4.1C6.2 4.3 6.4 4.4 6.8 4.7C7.4 5.1 8 5.6 8.6 6.2C9.3 6.9 9.9 7.5 10.4 8.1C9.8 7.1 8.4 3.3 5.5 0.2C5.2 -0.1 7.5 1.3 8.1 1.9C9.8 3.7 10 4.8 10.7 6.6L11.7 10Z" fill="#4b4e4f"/>
</svg>
