<svg width="145" height="44" viewBox="0 0 145 44" fill="none" xmlns="http://www.w3.org/2000/svg">
<path fill-rule="evenodd" clip-rule="evenodd" d="M98.4771 29.137C94.8873 29.137 92.5684 26.3299 92.5684 21.9872C92.5684 18.3846 94.3958 14.7481 98.4771 14.7481C102.733 14.7481 104.249 18.4875 104.249 21.9872C104.249 25.4435 102.733 29.137 98.4771 29.137ZM92.5684 12.5088C94.2092 10.4803 96.7317 9.37108 99.7439 9.37108C106.176 9.37108 110.669 14.5221 110.669 21.8971C110.669 29.3252 106.176 34.5133 99.7439 34.5133C96.7485 34.5133 94.2245 33.3888 92.5684 31.3321V33.976H86.4192V0.123535H92.5684V12.5088ZM112.262 33.9768V0.123535H118.412V33.9768H112.262ZM59.8485 21.2185L59.8453 23.5261H42.8383C42.9653 26.9623 45.2963 29.0858 48.9674 29.0858C51.4375 29.0858 53.5272 28.1045 55.0096 26.2456L55.1455 26.0751L59.1085 29.8081L58.9863 29.9537C56.4204 33.0045 52.9424 34.5513 48.6512 34.5513C41.1339 34.5513 36.2764 29.6528 36.2764 22.0703C36.2764 14.4974 41.1041 9.40991 48.2885 9.40991C55.2026 9.40991 59.8485 14.1555 59.8485 21.2185ZM43.0337 18.9808H53.9374C53.384 16.349 51.3852 14.7853 48.5467 14.7853C45.7315 14.7853 43.6394 16.3852 43.0337 18.9808ZM84.6441 21.2185L84.6409 23.5261H67.6339C67.7609 26.9623 70.0919 29.0858 73.7629 29.0858C76.2331 29.0858 78.3228 28.1045 79.8052 26.2456L79.9411 26.0751L83.9041 29.8081L83.7819 29.9537C81.216 33.0045 77.738 34.5513 73.4468 34.5513C65.9294 34.5513 61.072 29.6528 61.072 22.0703C61.072 14.4974 65.8997 9.40991 73.0841 9.40991C79.9982 9.40991 84.6441 14.1555 84.6441 21.2185ZM67.8293 18.9808H78.733C78.1796 16.349 76.1808 14.7853 73.3423 14.7853C70.5271 14.7853 68.435 16.3852 67.8293 18.9808ZM30.1206 9.94608H36.6527L30.0715 34.0145H23.0858L18.6651 18.5389L14.1568 34.0145H7.14694L7.10672 33.8657L0.61084 9.94608H7.18716L10.8493 25.2729L15.2941 9.94608H22.0595L26.5035 25.268L30.1206 9.94608ZM138.022 9.97675H144.611L131.723 43.7439H125.825L129.483 33.9784L119.949 9.97675H126.859L132.462 26.0154L138.022 9.97675Z" fill="#4b4e4f"/>
</svg>
